<?xml version="1.0" encoding="UTF-8" standalone="no"?>
<svg width="35px" height="24px" viewBox="0 0 35 24" >
    <defs></defs>
    <g id="Symbols" stroke="none" stroke-width="1" fill="none" fill-rule="evenodd">
        <g id="nav-icon-capsule-selected" fill="#ffffff">
            <path d="M17.5,0 C17.1978333,0 16.8956667,0.0781666667 16.625,0.2345 L7.875,5.28616667 C7.33366667,5.59883333 7,6.176625 7,6.80195833 L7,16.9055833 C7,17.530625 7.33366667,18.1084167 7.875,18.4210833 L16.625,23.47275 C16.8956667,23.6290833 17.1978333,23.70725 17.5,23.70725 C17.8021667,23.70725 18.1043333,23.6290833 18.375,23.47275 L27.125,18.4210833 C27.6663333,18.1084167 28,17.530625 28,16.9055833 L28,6.80195833 C28,6.176625 27.6663333,5.59883333 27.125,5.28616667 L18.375,0.2345 C18.1043333,0.0781666667 17.8021667,0 17.5,0 M17.5,2.42345833 L25.6666667,7.13854167 L25.6666667,16.5687083 L17.5,21.2837917 L9.33333333,16.5687083 L9.33333333,7.13854167 L17.5,2.42345833" id="Capsule-Icon"></path>
        </g>
    </g>
</svg>